<svg width="100%" viewBox="0 0 240 270" xmlns="http://www.w3.org/2000/svg" role="img">
<title>Gas Safety Certificate</title><desc>3D isometric tile with certificate, seal and gas flame.</desc>
<defs>
<linearGradient id="tile" x1="0" y1="0" x2="0" y2="1"><stop offset="0" stop-color="#ece7de"/><stop offset="1" stop-color="#ddd7cc"/></linearGradient>
<linearGradient id="fB" x1="0" y1="0" x2="0" y2="1"><stop offset="0" stop-color="#ff7d3e"/><stop offset="1" stop-color="#e2400f"/></linearGradient>
<linearGradient id="fM" x1="0" y1="0" x2="0" y2="1"><stop offset="0" stop-color="#ffa64f"/><stop offset="1" stop-color="#ff6f1e"/></linearGradient>
<linearGradient id="fF" x1="0" y1="0" x2="0" y2="1"><stop offset="0" stop-color="#ffe885"/><stop offset="1" stop-color="#ffc23c"/></linearGradient>
</defs>
<ellipse cx="120" cy="240" rx="88" ry="18" fill="#000000" opacity="0.10"/>
<polygon points="42,165 120,204 120,230 42,191" fill="#c9c3b7"/>
<polygon points="198,165 120,204 120,230 198,191" fill="#bdb7aa"/>
<polygon points="42,165 120,126 198,165 120,204" fill="url(#tile)"/>
<polygon points="42,165 120,126 198,165 120,204" fill="none" stroke="#efeae2" stroke-width="1" stroke-linejoin="round" opacity="0.7"/>
<ellipse cx="66" cy="173" rx="9" ry="3" fill="#000000" opacity="0.10"/>
<polygon points="59,162 73,162 71,174 61,174" fill="#cf7f4f"/>
<ellipse cx="66" cy="162" rx="7" ry="2.4" fill="#dd8a57"/>
<circle cx="62" cy="155" r="6" fill="#5cb85c"/><circle cx="70" cy="153" r="6" fill="#4aa64a"/><circle cx="66" cy="149" r="6.5" fill="#6cc46c"/>
<ellipse cx="118" cy="160" rx="40" ry="11" fill="#000000" opacity="0.08"/>
<polygon points="80,158 120,178 120,187 80,167" fill="#dcdce0"/>
<polygon points="160,158 120,178 120,187 160,167" fill="#cfd0d5"/>
<polygon points="80,158 120,138 160,158 120,178" fill="#ffffff"/>
<polygon points="80,158 120,138 160,158 120,178" fill="none" stroke="#d7dade" stroke-width="1" stroke-linejoin="round"/>
<line x1="100" y1="152" x2="128" y2="166" stroke="#cdddd6" stroke-width="2.4" stroke-linecap="round"/>
<line x1="106" y1="150" x2="134" y2="164" stroke="#e4e7eb" stroke-width="2.4" stroke-linecap="round"/>
<ellipse cx="116" cy="152" rx="17" ry="5" fill="#000000" opacity="0.12"/>
<path d="M118 84 C 138 110, 148 130, 136 150 C 128 163, 108 163, 100 150 C 90 134, 98 118, 108 112 C 106 124, 116 128, 118 122 C 122 112, 114 100, 118 84 Z" fill="url(#fB)"/>
<path d="M118 98 C 133 118, 140 134, 130 150 C 123 161, 108 161, 101 150 C 94 138, 100 124, 109 118 C 108 128, 116 132, 118 126 C 121 118, 115 110, 118 98 Z" fill="url(#fM)"/>
<path d="M118 122 C 128 134, 131 144, 125 153 C 120 160, 110 160, 106 152 C 103 145, 107 137, 113 134 C 112 140, 118 142, 119 137 C 120 132, 118 128, 118 122 Z" fill="url(#fF)"/>
<ellipse cx="142" cy="168" rx="11" ry="6" fill="#0e7a60"/>
<circle cx="142" cy="164" r="9" fill="#1aa784"/><circle cx="142" cy="164" r="5" fill="#0e8568"/>
<polygon points="136,170 136,180 142,176 148,180 148,170" fill="#127a5f"/>
</svg>
