<svg width="100%" viewBox="0 0 240 270" xmlns="http://www.w3.org/2000/svg" role="img">
<title>How to Rent Guide</title><desc>3D isometric tile with a thick blue guide book.</desc>
<defs>
<linearGradient id="tile" x1="0" y1="0" x2="0" y2="1"><stop offset="0" stop-color="#ece7de"/><stop offset="1" stop-color="#ddd7cc"/></linearGradient>
</defs>
<ellipse cx="120" cy="240" rx="88" ry="18" fill="#000000" opacity="0.10"/>
<polygon points="42,165 120,204 120,230 42,191" fill="#c9c3b7"/>
<polygon points="198,165 120,204 120,230 198,191" fill="#bdb7aa"/>
<polygon points="42,165 120,126 198,165 120,204" fill="url(#tile)"/>
<polygon points="42,165 120,126 198,165 120,204" fill="none" stroke="#efeae2" stroke-width="1" stroke-linejoin="round" opacity="0.7"/>
<ellipse cx="66" cy="173" rx="9" ry="3" fill="#000000" opacity="0.10"/>
<polygon points="59,162 73,162 71,174 61,174" fill="#cf7f4f"/>
<ellipse cx="66" cy="162" rx="7" ry="2.4" fill="#dd8a57"/>
<circle cx="62" cy="155" r="6" fill="#5cb85c"/><circle cx="70" cy="153" r="6" fill="#4aa64a"/><circle cx="66" cy="149" r="6.5" fill="#6cc46c"/>
<ellipse cx="120" cy="170" rx="46" ry="12" fill="#000000" opacity="0.09"/>
<polygon points="74,150 120,128 166,150 120,172" fill="#3a7ad9"/>
<polygon points="166,150 120,172 120,186 166,164" fill="#e3e8ef"/>
<polygon points="74,150 120,172 120,186 74,164" fill="#234e8f"/>
<polygon points="166,150 120,172 120,177 166,155" fill="#cfd6e0"/>
<polygon points="74,150 120,172 120,177 74,155" fill="#cfd6e0"/>
<polygon points="86,150 120,134 132,140 98,156" fill="#ffffff" opacity="0.9"/>
<polygon points="100,158 124,146 132,150 108,162" fill="#9dbdec"/>
</svg>
