<svg width="100%" viewBox="0 0 240 270" xmlns="http://www.w3.org/2000/svg" role="img">
<title>Landlord Insurance</title><desc>3D isometric tile with a protective shield and house emblem.</desc>
<defs>
<linearGradient id="tile" x1="0" y1="0" x2="0" y2="1"><stop offset="0" stop-color="#ece7de"/><stop offset="1" stop-color="#ddd7cc"/></linearGradient>
<linearGradient id="shieldG" x1="0" y1="0" x2="0" y2="1"><stop offset="0" stop-color="#27b893"/><stop offset="1" stop-color="#148a6b"/></linearGradient>
</defs>
<ellipse cx="120" cy="240" rx="88" ry="18" fill="#000000" opacity="0.10"/>
<polygon points="42,165 120,204 120,230 42,191" fill="#c9c3b7"/>
<polygon points="198,165 120,204 120,230 198,191" fill="#bdb7aa"/>
<polygon points="42,165 120,126 198,165 120,204" fill="url(#tile)"/>
<polygon points="42,165 120,126 198,165 120,204" fill="none" stroke="#efeae2" stroke-width="1" stroke-linejoin="round" opacity="0.7"/>
<ellipse cx="66" cy="173" rx="9" ry="3" fill="#000000" opacity="0.10"/>
<polygon points="59,162 73,162 71,174 61,174" fill="#cf7f4f"/>
<ellipse cx="66" cy="162" rx="7" ry="2.4" fill="#dd8a57"/>
<circle cx="62" cy="155" r="6" fill="#5cb85c"/><circle cx="70" cy="153" r="6" fill="#4aa64a"/><circle cx="66" cy="149" r="6.5" fill="#6cc46c"/>
<ellipse cx="120" cy="174" rx="34" ry="9" fill="#000000" opacity="0.10"/>
<path d="M124 90 L160 104 C160 140,144 162,124 174 C123 150,123 114,124 90 Z" fill="#0e7a60"/>
<path d="M120 88 L156 102 C156 138,140 160,120 172 C100 160,84 138,84 102 Z" fill="url(#shieldG)"/>
<path d="M120 88 L156 102 C156 138,140 160,120 172 C100 160,84 138,84 102 Z" fill="none" stroke="#0e7a60" stroke-width="1.2" stroke-linejoin="round"/>
<polygon points="102,128 120,112 138,128" fill="#ffffff"/>
<rect x="107" y="128" width="26" height="20" fill="#ffffff"/>
<rect x="116" y="136" width="8" height="12" fill="#1aa784"/>
<rect x="110" y="131" width="6" height="6" fill="#9fded0"/>
<rect x="124" y="131" width="6" height="6" fill="#9fded0"/>
</svg>
