<svg width="100%" viewBox="0 0 240 270" xmlns="http://www.w3.org/2000/svg" role="img">
<title>Legionella Risk Assessment</title><desc>3D isometric tile with a water droplet and ripple.</desc>
<defs>
<linearGradient id="tile" x1="0" y1="0" x2="0" y2="1"><stop offset="0" stop-color="#ece7de"/><stop offset="1" stop-color="#ddd7cc"/></linearGradient>
<linearGradient id="dropG" x1="0" y1="0" x2="0" y2="1"><stop offset="0" stop-color="#62c5ef"/><stop offset="1" stop-color="#1f93c8"/></linearGradient>
</defs>
<ellipse cx="120" cy="240" rx="88" ry="18" fill="#000000" opacity="0.10"/>
<polygon points="42,165 120,204 120,230 42,191" fill="#c9c3b7"/>
<polygon points="198,165 120,204 120,230 198,191" fill="#bdb7aa"/>
<polygon points="42,165 120,126 198,165 120,204" fill="url(#tile)"/>
<polygon points="42,165 120,126 198,165 120,204" fill="none" stroke="#efeae2" stroke-width="1" stroke-linejoin="round" opacity="0.7"/>
<ellipse cx="66" cy="173" rx="9" ry="3" fill="#000000" opacity="0.10"/>
<polygon points="59,162 73,162 71,174 61,174" fill="#cf7f4f"/>
<ellipse cx="66" cy="162" rx="7" ry="2.4" fill="#dd8a57"/>
<circle cx="62" cy="155" r="6" fill="#5cb85c"/><circle cx="70" cy="153" r="6" fill="#4aa64a"/><circle cx="66" cy="149" r="6.5" fill="#6cc46c"/>
<ellipse cx="120" cy="172" rx="34" ry="9" fill="#000000" opacity="0.09"/>
<ellipse cx="120" cy="170" rx="30" ry="7.5" fill="#bfe3f4"/>
<ellipse cx="120" cy="170" rx="20" ry="5" fill="#9fd6f0"/>
<path d="M120 92 C 146 126, 158 148, 144 167 C 134 179, 106 179, 96 167 C 82 148, 94 126, 120 92 Z" fill="url(#dropG)"/>
<path d="M120 92 C 146 126, 158 148, 144 167 C 134 179, 106 179, 96 167 C 82 148, 94 126, 120 92 Z" fill="none" stroke="#1684b8" stroke-width="1" stroke-linejoin="round"/>
<path d="M106 148 C 104 158, 108 168, 118 172" stroke="#d6f0fb" stroke-width="5" fill="none" stroke-linecap="round"/>
<ellipse cx="110" cy="124" rx="5" ry="9" fill="#cdeefb" opacity="0.85"/>
</svg>
