<svg width="100%" viewBox="0 0 240 270" xmlns="http://www.w3.org/2000/svg" role="img">
<title>Right to Rent</title><desc>3D isometric tile with an ID card and a verified check badge.</desc>
<defs>
<linearGradient id="tile" x1="0" y1="0" x2="0" y2="1"><stop offset="0" stop-color="#ece7de"/><stop offset="1" stop-color="#ddd7cc"/></linearGradient>
</defs>
<ellipse cx="120" cy="240" rx="88" ry="18" fill="#000000" opacity="0.10"/>
<polygon points="42,165 120,204 120,230 42,191" fill="#c9c3b7"/>
<polygon points="198,165 120,204 120,230 198,191" fill="#bdb7aa"/>
<polygon points="42,165 120,126 198,165 120,204" fill="url(#tile)"/>
<polygon points="42,165 120,126 198,165 120,204" fill="none" stroke="#efeae2" stroke-width="1" stroke-linejoin="round" opacity="0.7"/>
<ellipse cx="66" cy="173" rx="9" ry="3" fill="#000000" opacity="0.10"/>
<polygon points="59,162 73,162 71,174 61,174" fill="#cf7f4f"/>
<ellipse cx="66" cy="162" rx="7" ry="2.4" fill="#dd8a57"/>
<circle cx="62" cy="155" r="6" fill="#5cb85c"/><circle cx="70" cy="153" r="6" fill="#4aa64a"/><circle cx="66" cy="149" r="6.5" fill="#6cc46c"/>
<ellipse cx="118" cy="162" rx="42" ry="11" fill="#000000" opacity="0.08"/>
<polygon points="74,160 120,140 120,150 74,170" fill="#dcdce0"/>
<polygon points="166,160 120,140 120,150 166,170" fill="#cfd0d5"/>
<polygon points="74,160 120,138 166,160 120,182" fill="#ffffff"/>
<polygon points="74,160 120,138 166,160 120,182" fill="none" stroke="#d7dade" stroke-width="1" stroke-linejoin="round"/>
<polygon points="74,160 120,138 132,144 86,166" fill="#1aa784"/>
<polygon points="92,162 108,154 118,159 102,167" fill="#cfe0d9"/>
<circle cx="103" cy="159" r="3.6" fill="#9fbcb1"/>
<line x1="118" y1="166" x2="140" y2="172" stroke="#dfe3ea" stroke-width="2.4" stroke-linecap="round"/>
<line x1="123" y1="170" x2="143" y2="175" stroke="#dfe3ea" stroke-width="2.4" stroke-linecap="round"/>
<ellipse cx="148" cy="150" rx="11" ry="6" fill="#0e7a60"/>
<circle cx="148" cy="146" r="10" fill="#1aa784"/>
<path d="M143 146 l3.5 3.6 l6 -7.2" stroke="#ffffff" stroke-width="2.3" fill="none" stroke-linecap="round" stroke-linejoin="round"/>
</svg>
