<svg width="100%" viewBox="40 74 160 124" xmlns="http://www.w3.org/2000/svg" role="img">
<title>Inventory and Schedule of Condition</title><desc>Freestanding clipboard with checklist.</desc>
<polygon points="70,158 120,132 120,142 70,168" fill="#b6843f"/>
<polygon points="170,158 120,132 120,142 170,168" fill="#a8773a"/>
<polygon points="70,158 120,130 170,158 120,186" fill="#cf9a5b"/>
<polygon points="86,158 120,140 154,158 120,176" fill="#fdfbf6"/>
<polygon points="110,132 130,132 126,124 114,124" fill="#9aa0a6"/>
<polygon points="94,158 100,155 106,158 100,161" fill="#1aa784"/>
<polygon points="108,164 114,161 134,170 128,173" fill="#e2dccf"/>
<polygon points="104,150 110,147 116,150 110,153" fill="#1aa784"/>
<polygon points="118,156 124,153 142,162 136,165" fill="#e2dccf"/>
</svg>
