<svg width="100%" viewBox="40 74 160 124" xmlns="http://www.w3.org/2000/svg" role="img">
<title>Right to Rent</title><desc>Freestanding ID card with a verified check badge.</desc>
<polygon points="74,160 120,140 120,150 74,170" fill="#dcdce0"/>
<polygon points="166,160 120,140 120,150 166,170" fill="#cfd0d5"/>
<polygon points="74,160 120,138 166,160 120,182" fill="#ffffff"/>
<polygon points="74,160 120,138 166,160 120,182" fill="none" stroke="#d7dade" stroke-width="1" stroke-linejoin="round"/>
<polygon points="74,160 120,138 132,144 86,166" fill="#1aa784"/>
<polygon points="92,162 108,154 118,159 102,167" fill="#cfe0d9"/>
<circle cx="103" cy="159" r="3.6" fill="#9fbcb1"/>
<line x1="118" y1="166" x2="140" y2="172" stroke="#dfe3ea" stroke-width="2.4" stroke-linecap="round"/>
<line x1="123" y1="170" x2="143" y2="175" stroke="#dfe3ea" stroke-width="2.4" stroke-linecap="round"/>
<ellipse cx="148" cy="150" rx="11" ry="6" fill="#0e7a60"/>
<circle cx="148" cy="146" r="10" fill="#1aa784"/>
<path d="M143 146 l3.5 3.6 l6 -7.2" stroke="#ffffff" stroke-width="2.3" fill="none" stroke-linecap="round" stroke-linejoin="round"/>
</svg>
